HIERARCHY
ROOT Hips
{
	OFFSET 0.000000 121.760803 0.000000
	CHANNELS 6 Xposition Yposition Zposition Xrotation Yrotation Zrotation 
	JOINT Spine
	{
		OFFSET 0.072000 7.257294 -0.789700
		CHANNELS 3 Xrotation Yrotation Zrotation
		JOINT Spine1
		{
			OFFSET 0.000000 12.508769 -0.658067
			CHANNELS 3 Xrotation Yrotation Zrotation
			JOINT Spine1_split
			{
				OFFSET 0.000000 12.508769 -0.658067
				CHANNELS 3 Xrotation Yrotation Zrotation
				JOINT Spine2
				{
					OFFSET 0.000000 12.508769 -0.658067
					CHANNELS 3 Xrotation Yrotation Zrotation
					JOINT Neck
					{
						OFFSET 0.000000 14.033295 7.520400
						CHANNELS 3 Xrotation Yrotation Zrotation
						JOINT Head
						{
							OFFSET 0.000000 8.198502 5.703100
							CHANNELS 3 Xrotation Yrotation Zrotation
							JOINT HeadTop_End
							{
								OFFSET 0.000000 17.760803 13.332701
								CHANNELS 3 Xrotation Yrotation Zrotation
								End Site
								{
									OFFSET 0.000000 0.000000 0.000000
								}
							}
						}
					}
					JOINT LeftShoulder
					{
						OFFSET 6.292450 5.785301 -0.669000
						CHANNELS 3 Xrotation Yrotation Zrotation
						JOINT LeftShoulder_split
						{
							OFFSET 6.292450 5.785301 -0.669000
							CHANNELS 3 Xrotation Yrotation Zrotation
							JOINT LeftArm
							{
								OFFSET 13.907140 -6.093903 1.965100
								CHANNELS 3 Xrotation Yrotation Zrotation
								JOINT LeftForeArm
								{
									OFFSET 34.140198 0.000000 0.000000
									CHANNELS 3 Xrotation Yrotation Zrotation
									JOINT LeftHand
									{
										OFFSET 40.960209 0.000000 0.000000
										CHANNELS 3 Xrotation Yrotation Zrotation
										JOINT LeftHandThumb1
										{
											OFFSET 10.006996 -7.170425 9.573125
											CHANNELS 3 Xrotation Yrotation Zrotation
											JOINT LeftHandThumb2
											{
												OFFSET 1.835007 -1.059448 1.059443
												CHANNELS 3 Xrotation Yrotation Zrotation
												JOINT LeftHandThumb3
												{
													OFFSET 2.112267 -1.219513 1.219518
													CHANNELS 3 Xrotation Yrotation Zrotation
													JOINT LeftHandThumb4
													{
														OFFSET 4.843811 -2.796570 2.796576
														CHANNELS 3 Xrotation Yrotation Zrotation
														End Site
														{
															OFFSET 0.000000 0.000000 0.000000
														}
													}
												}
											}
										}
										JOINT LeftHandIndex1
										{
											OFFSET 18.389847 -0.922348 4.596882
											CHANNELS 3 Xrotation Yrotation Zrotation
											JOINT LeftHandIndex2
											{
												OFFSET 4.711273 0.000000 0.000000
												CHANNELS 3 Xrotation Yrotation Zrotation
												JOINT LeftHandIndex3
												{
													OFFSET 2.886131 0.000000 0.000000
													CHANNELS 3 Xrotation Yrotation Zrotation
													JOINT LeftHandIndex4
													{
														OFFSET 6.145912 0.000000 0.000000
														CHANNELS 3 Xrotation Yrotation Zrotation
														End Site
														{
															OFFSET 0.000000 0.000000 0.000000
														}
													}
												}
											}
										}
										JOINT LeftHandMiddle1
										{
											OFFSET 18.013008 0.000000 0.000000
											CHANNELS 3 Xrotation Yrotation Zrotation
											JOINT LeftHandMiddle2
											{
												OFFSET 4.946693 0.000000 0.000000
												CHANNELS 3 Xrotation Yrotation Zrotation
												JOINT LeftHandMiddle3
												{
													OFFSET 3.342232 0.000000 0.000000
													CHANNELS 3 Xrotation Yrotation Zrotation
													JOINT LeftHandMiddle4
													{
														OFFSET 4.461754 0.000000 0.000000
														CHANNELS 3 Xrotation Yrotation Zrotation
														End Site
														{
															OFFSET 0.000000 0.000000 0.000000
														}
													}
												}
											}
										}
										JOINT LeftHandRing1
										{
											OFFSET 15.849892 -0.102921 -4.126150
											CHANNELS 3 Xrotation Yrotation Zrotation
											JOINT LeftHandRing2
											{
												OFFSET 3.527054 0.000000 0.000000
												CHANNELS 3 Xrotation Yrotation Zrotation
												JOINT LeftHandRing3
												{
													OFFSET 2.961098 0.000000 0.000000
													CHANNELS 3 Xrotation Yrotation Zrotation
													JOINT LeftHandRing4
													{
														OFFSET 4.927200 0.000000 0.000000
														CHANNELS 3 Xrotation Yrotation Zrotation
														End Site
														{
															OFFSET 0.000000 0.000000 0.000000
														}
													}
												}
											}
										}
										JOINT LeftHandPinky1
										{
											OFFSET 12.791824 -0.832031 -6.799156
											CHANNELS 3 Xrotation Yrotation Zrotation
											JOINT LeftHandPinky2
											{
												OFFSET 3.327133 0.000000 0.000000
												CHANNELS 3 Xrotation Yrotation Zrotation
												JOINT LeftHandPinky3
												{
													OFFSET 3.014900 0.000000 0.000000
													CHANNELS 3 Xrotation Yrotation Zrotation
													JOINT LeftHandPinky4
													{
														OFFSET 5.847786 0.000000 0.000000
														CHANNELS 3 Xrotation Yrotation Zrotation
														End Site
														{
															OFFSET 0.000000 0.000000 0.000000
														}
													}
												}
											}
										}
									}
								}
							}
						}
					}
					JOINT RightShoulder
					{
						OFFSET -6.292450 5.785301 -0.669000
						CHANNELS 3 Xrotation Yrotation Zrotation
						JOINT RightShoulder_split
						{
							OFFSET -6.292450 5.785301 -0.669000
							CHANNELS 3 Xrotation Yrotation Zrotation
							JOINT RightArm
							{
								OFFSET -13.907140 -6.093903 1.965100
								CHANNELS 3 Xrotation Yrotation Zrotation
								JOINT RightForeArm
								{
									OFFSET -34.140198 0.000000 0.000000
									CHANNELS 3 Xrotation Yrotation Zrotation
									JOINT RightHand
									{
										OFFSET -40.960209 0.000000 0.000000
										CHANNELS 3 Xrotation Yrotation Zrotation
										JOINT RightHandThumb1
										{
											OFFSET -10.007050 -7.170456 9.573117
											CHANNELS 3 Xrotation Yrotation Zrotation
											JOINT RightHandThumb2
											{
												OFFSET -1.835007 -1.059448 1.059443
												CHANNELS 3 Xrotation Yrotation Zrotation
												JOINT RightHandThumb3
												{
													OFFSET -2.112267 -1.219513 1.219518
													CHANNELS 3 Xrotation Yrotation Zrotation
													JOINT RightHandThumb4
													{
														OFFSET -4.843834 -2.796585 2.796590
														CHANNELS 3 Xrotation Yrotation Zrotation
														End Site
														{
															OFFSET 0.000000 0.000000 0.000000
														}
													}
												}
											}
										}
										JOINT RightHandIndex1
										{
											OFFSET -18.389870 -0.922424 4.596786
											CHANNELS 3 Xrotation Yrotation Zrotation
											JOINT RightHandIndex2
											{
												OFFSET -4.711273 0.000000 0.000000
												CHANNELS 3 Xrotation Yrotation Zrotation
												JOINT RightHandIndex3
												{
													OFFSET -2.886131 0.000000 0.000000
													CHANNELS 3 Xrotation Yrotation Zrotation
													JOINT RightHandIndex4
													{
														OFFSET -6.145920 0.000000 0.000000
														CHANNELS 3 Xrotation Yrotation Zrotation
														End Site
														{
															OFFSET 0.000000 0.000000 0.000000
														}
													}
												}
											}
										}
										JOINT RightHandMiddle1
										{
											OFFSET -18.013008 0.000000 0.000000
											CHANNELS 3 Xrotation Yrotation Zrotation
											JOINT RightHandMiddle2
											{
												OFFSET -4.946693 0.000000 0.000000
												CHANNELS 3 Xrotation Yrotation Zrotation
												JOINT RightHandMiddle3
												{
													OFFSET -3.342232 0.000000 0.000000
													CHANNELS 3 Xrotation Yrotation Zrotation
													JOINT RightHandMiddle4
													{
														OFFSET -4.461754 0.000000 0.000000
														CHANNELS 3 Xrotation Yrotation Zrotation
														End Site
														{
															OFFSET 0.000000 0.000000 0.000000
														}
													}
												}
											}
										}
										JOINT RightHandRing1
										{
											OFFSET -15.849876 -0.102936 -4.126237
											CHANNELS 3 Xrotation Yrotation Zrotation
											JOINT RightHandRing2
											{
												OFFSET -3.527054 0.000000 0.000000
												CHANNELS 3 Xrotation Yrotation Zrotation
												JOINT RightHandRing3
												{
													OFFSET -2.961098 0.000000 0.000000
													CHANNELS 3 Xrotation Yrotation Zrotation
													JOINT RightHandRing4
													{
														OFFSET -4.927200 0.000000 0.000000
														CHANNELS 3 Xrotation Yrotation Zrotation
														End Site
														{
															OFFSET 0.000000 0.000000 0.000000
														}
													}
												}
											}
										}
										JOINT RightHandPinky1
										{
											OFFSET -12.791786 -0.832077 -6.799222
											CHANNELS 3 Xrotation Yrotation Zrotation
											JOINT RightHandPinky2
											{
												OFFSET -3.327133 0.000000 0.000000
												CHANNELS 3 Xrotation Yrotation Zrotation
												JOINT RightHandPinky3
												{
													OFFSET -3.014900 0.000000 0.000000
													CHANNELS 3 Xrotation Yrotation Zrotation
													JOINT RightHandPinky4
													{
														OFFSET -5.847786 0.000000 0.000000
														CHANNELS 3 Xrotation Yrotation Zrotation
														End Site
														{
															OFFSET 0.000000 0.000000 0.000000
														}
													}
												}
											}
										}
									}
								}
							}
						}
					}
				}
			}
		}
	}
	JOINT LeftUpLeg
	{
		OFFSET 13.026900 -6.336304 -1.092800
		CHANNELS 3 Xrotation Yrotation Zrotation
		JOINT LeftLeg
		{
			OFFSET 0.524474 -46.096886 9.782700
			CHANNELS 3 Xrotation Yrotation Zrotation
			JOINT LeftFoot
			{
				OFFSET -0.524474 -53.427422 -12.948200
				CHANNELS 3 Xrotation Yrotation Zrotation
				JOINT LeftToeBase
				{
					OFFSET 0.192200 -14.009700 16.364100
					CHANNELS 3 Xrotation Yrotation Zrotation
					JOINT LeftToe_End
					{
						OFFSET -1.784700 -0.561700 9.474800
						CHANNELS 3 Xrotation Yrotation Zrotation
						End Site
						{
							OFFSET 0.000000 0.000000 0.000000
						}
					}
				}
			}
		}
	}
	JOINT RightUpLeg
	{
		OFFSET -12.883000 -6.336304 -1.092800
		CHANNELS 3 Xrotation Yrotation Zrotation
		JOINT RightLeg
		{
			OFFSET -0.524587 -46.096825 9.782800
			CHANNELS 3 Xrotation Yrotation Zrotation
			JOINT RightFoot
			{
				OFFSET 0.524587 -53.427383 -12.948300
				CHANNELS 3 Xrotation Yrotation Zrotation
				JOINT RightToeBase
				{
					OFFSET -0.192200 -14.009700 16.364100
					CHANNELS 3 Xrotation Yrotation Zrotation
					JOINT RightToe_End
					{
						OFFSET 1.784700 -0.561700 9.474800
						CHANNELS 3 Xrotation Yrotation Zrotation
						End Site
						{
							OFFSET 0.000000 0.000000 0.000000
						}
					}
				}
			}
		}
	}
}
MOTION
Frames: 4
Frame Time: 0.016667
0.086900 119.491959 1.089378 -4.056044 6.167774 -1.799131 4.903636 -0.351415 1.256147 5.814411 -0.121263 1.891506 0.000000 0.000000 0.000000 -4.300226 -0.608025 -1.115061 1.349176 -1.122403 0.966674 4.180454 -0.441328 -1.260371 0.000000 0.000000 -0.000000 1.687483 -7.781255 -3.494999 0.000000 0.000000 0.000000 -0.672287 -2.004149 -76.954143 6.346023 -10.905151 1.751679 -0.215849 -0.744254 3.407815 -3.779738 8.457875 12.348752 7.439533 11.617319 -1.292623 1.145894 8.839768 5.191140 -0.000003 -0.000000 0.000002 2.384571 3.620161 -6.815688 -0.007823 0.227204 -17.103511 0.032051 0.161731 -12.954583 0.000001 -0.000000 0.000000 -1.935776 5.644686 -11.387010 0.112462 0.632664 -24.767755 0.028388 0.020375 -9.474980 -0.000000 0.000001 0.000006 -4.873135 10.020103 -7.875474 -0.031554 0.293307 -30.086211 0.075497 0.690895 -12.602717 -0.000000 -0.000000 -0.000001 -6.437543 11.282627 -19.770942 0.029281 0.211155 -30.857661 0.009314 0.123801 -11.459745 -0.000000 0.000000 0.000003 2.069733 10.207991 4.096301 0.000000 0.000000 0.000000 1.439769 3.704607 75.273903 15.720234 15.338358 -4.555480 -4.669811 -0.553081 -0.689248 -0.464229 -8.992533 -6.084846 7.444298 -11.614500 1.291672 1.121882 -8.850190 -5.182513 0.000002 -0.000002 -0.000003 2.415139 -3.647885 8.343603 -0.045909 -0.188511 18.630249 -0.057290 -0.137366 14.481620 -0.000004 0.000002 0.000000 -1.985498 -5.700687 13.541327 0.094749 -0.637359 26.924148 -0.057974 -0.061582 11.632774 0.000004 -0.000003 -0.000003 -4.982059 -10.062145 10.706128 -0.023914 -0.331175 32.937382 0.106076 -0.688827 15.454599 0.000001 -0.000000 -0.000001 -6.468523 -11.288228 23.243658 0.067366 -0.216405 34.333261 -0.042698 -0.081302 14.933107 0.000000 -0.000001 -0.000004 -1.997934 11.137247 9.919247 8.920756 -6.497561 0.247554 -4.065726 0.511350 -6.342404 0.003801 0.013848 0.000116 0.000000 0.000001 -0.000000 -0.466717 -5.957157 1.992146 8.186489 3.323939 -0.639025 -3.459689 0.134990 0.180437 0.000046 0.000001 0.000003 -0.000000 0.000000 -0.000000 
0.263585 119.482674 1.159863 -4.000347 6.050217 -1.827131 4.886287 -0.330328 1.230314 5.821197 -0.106784 1.917306 0.000000 0.000000 0.000000 -4.288225 -0.596360 -1.086638 1.375390 -1.125631 0.914276 4.107038 -0.471391 -1.182773 -0.000000 -0.000000 0.000000 1.710091 -7.716845 -3.464171 0.000000 0.000000 0.000000 -0.640204 -1.994683 -77.013170 6.401017 -10.925487 1.756955 -0.211698 -0.779961 3.402865 -3.770349 8.494632 12.357317 7.410614 11.555746 -1.302248 1.156700 8.872095 5.197120 0.000000 0.000000 -0.000002 2.365563 3.558895 -6.752278 -0.007895 0.227191 -17.059738 0.031914 0.161697 -12.913597 -0.000001 -0.000000 0.000000 -1.944292 5.590015 -11.373854 0.112399 0.632614 -24.756951 0.028389 0.020308 -9.464935 -0.000000 -0.000001 -0.000002 -4.875002 9.973654 -7.908306 -0.031575 0.293457 -30.105237 0.075684 0.691004 -12.622493 0.000000 0.000000 -0.000002 -6.427782 11.248476 -19.851974 0.029338 0.211364 -30.908764 0.009500 0.124055 -11.510458 0.000000 -0.000000 0.000004 2.108044 10.186222 3.925885 0.000000 0.000000 0.000000 1.704446 4.137059 75.329385 15.726309 16.016508 -5.167380 -4.943599 -0.670161 -0.596682 -0.464264 -8.992506 -6.084825 7.444334 -11.614550 1.291606 1.121843 -8.850201 -5.182498 0.000001 0.000002 0.000001 2.415124 -3.647888 8.343643 -0.045935 -0.188500 18.630263 -0.057311 -0.137339 14.481639 0.000003 -0.000001 0.000000 -1.985549 -5.700726 13.541268 0.094750 -0.637344 26.924206 -0.057962 -0.061581 11.632762 -0.000002 0.000002 0.000002 -4.982047 -10.062121 10.706137 -0.024000 -0.331208 32.937351 0.106069 -0.688844 15.454599 0.000001 -0.000000 -0.000003 -6.468524 -11.288254 23.243632 0.067318 -0.216367 34.333291 -0.042671 -0.081308 14.933106 0.000001 0.000001 0.000003 -2.004148 11.098394 9.841720 9.023783 -6.380288 0.260853 -4.190228 0.563304 -6.270534 0.000059 0.013857 -0.000001 -0.000000 -0.000000 -0.000000 -0.491344 -5.971203 1.910621 8.183354 3.353173 -0.639426 -3.513577 0.181385 0.310051 0.049431 0.122567 -0.070427 -0.000000 -0.000000 0.000000 
0.456238 119.467361 1.262669 -3.997980 5.945705 -1.816706 4.953504 -0.317625 1.166984 5.780768 -0.096299 1.938783 0.000000 0.000000 0.000000 -4.313797 -0.587796 -1.059323 1.415384 -1.142937 0.891898 4.072205 -0.494248 -1.181360 0.000000 -0.000000 0.000000 1.725176 -7.668272 -3.419643 0.000000 0.000000 0.000000 -0.663470 -1.883001 -77.088964 6.401418 -10.863920 1.697798 -0.197287 -0.886259 3.455041 -3.774909 8.496036 12.356086 7.405257 11.551452 -1.297594 1.159396 8.871953 5.192124 -0.000002 0.000001 -0.000002 2.390002 3.891190 -6.747938 -0.007886 0.227174 -17.044186 0.031781 0.161707 -12.895528 0.000000 -0.000000 -0.000000 -1.920715 5.826081 -11.342096 0.112327 0.632563 -24.738928 0.028329 0.020210 -9.444813 -0.000000 0.000001 0.000003 -4.854185 10.148923 -7.869583 -0.031528 0.293373 -30.088100 0.075512 0.690884 -12.602845 0.000000 0.000000 0.000000 -6.388004 11.353688 -19.828813 0.029400 0.211323 -30.898669 0.009404 0.124024 -11.498495 0.000000 -0.000000 0.000003 2.143769 10.163303 3.767667 0.000000 0.000000 0.000000 1.868288 4.550494 75.382059 15.821534 16.571741 -5.763678 -5.230311 -0.788503 -0.468306 -0.464258 -8.992501 -6.084827 7.444311 -11.614524 1.291604 1.121867 -8.850202 -5.182503 -0.000000 0.000000 -0.000001 2.415140 -3.647876 8.343607 -0.045893 -0.188527 18.630237 -0.057335 -0.137325 14.481589 -0.000003 0.000000 0.000000 -1.985478 -5.700727 13.541290 0.094760 -0.637304 26.924206 -0.057991 -0.061542 11.632786 -0.000001 -0.000001 -0.000001 -4.982032 -10.062151 10.706077 -0.023969 -0.331199 32.937443 0.106090 -0.688844 15.454575 -0.000001 -0.000001 0.000000 -6.468526 -11.288264 23.243641 0.067383 -0.216356 34.333295 -0.042715 -0.081283 14.933107 -0.000000 -0.000003 -0.000002 -1.938874 11.117050 9.727705 9.125134 -6.309626 0.267842 -4.335481 0.596685 -6.181206 0.000045 0.013849 -0.000002 -0.000000 0.000001 -0.000000 -0.481609 -6.019917 1.810369 8.249032 3.481719 -0.657278 -3.598436 0.186498 0.402662 0.081687 0.176731 -0.060004 0.000000 -0.000000 0.000000 
0.672266 119.446861 1.351457 -3.911029 5.849133 -1.842948 4.912888 -0.308703 1.179709 5.773951 -0.091454 1.936356 0.000000 0.000000 0.000000 -4.297130 -0.582285 -1.054468 1.394790 -1.143805 0.871364 4.049760 -0.507420 -1.134739 -0.000000 -0.000000 0.000000 1.736350 -7.615506 -3.398645 0.000000 0.000000 0.000000 -0.683188 -1.787388 -77.118532 6.429662 -10.835446 1.658454 -0.182038 -0.982547 3.540811 -3.774019 8.519679 12.359888 7.396402 11.544276 -1.289695 1.142226 8.806191 5.170883 -0.000003 0.000001 -0.000001 2.376646 3.922605 -6.679054 -0.007979 0.227125 -16.995713 0.031676 0.161693 -12.847582 -0.000001 -0.000000 0.000002 -1.916470 5.871973 -11.333403 0.112277 0.632534 -24.733648 0.028283 0.020181 -9.438997 -0.000001 0.000000 0.000003 -4.835776 10.220190 -7.914611 -0.031532 0.293556 -30.121769 0.075833 0.691042 -12.635495 -0.000000 -0.000000 -0.000001 -6.320914 11.443576 -19.933975 0.029593 0.211630 -30.970455 0.009602 0.124306 -11.568040 0.000000 0.000000 0.000002 2.177287 10.135591 3.620687 0.000000 0.000000 0.000000 1.959050 4.933515 75.428935 15.740915 17.064213 -6.286255 -5.433558 -0.728883 -0.390453 -0.464233 -8.992524 -6.084877 7.444303 -11.614508 1.291615 1.121865 -8.850189 -5.182496 0.000001 0.000000 -0.000001 2.415395 -3.653172 8.343843 -0.045939 -0.188511 18.630229 -0.057328 -0.137336 14.481610 -0.000001 0.000001 0.000003 -1.985534 -5.700709 13.541224 0.094805 -0.637348 26.924237 -0.057951 -0.061564 11.632779 -0.000001 -0.000001 0.000000 -4.982053 -10.062137 10.706148 -0.023993 -0.331164 32.937361 0.106087 -0.688848 15.454567 0.000001 -0.000003 -0.000001 -6.468539 -11.288239 23.243697 0.067330 -0.216377 34.333319 -0.042673 -0.081312 14.933114 -0.000000 -0.000001 -0.000002 -1.985223 11.030129 9.620395 9.278887 -6.159080 0.295270 -4.494710 0.642683 -6.099015 -0.000044 0.013848 0.000003 0.000000 0.000000 0.000000 -0.552764 -6.054043 1.713314 8.296657 3.531860 -0.660589 -3.690811 0.204126 0.483569 0.118885 0.275698 -0.073004 -0.000000 0.000000 -0.000000 
